<mxfile host="Electron" modified="2024-04-25T16:12:23.249Z" agent="Mozilla/5.0 (Macintosh; Intel Mac OS X 10_15_7) AppleWebKit/537.36 (KHTML, like Gecko) draw.io/21.3.7 Chrome/112.0.5615.204 Electron/24.5.0 Safari/537.36" etag="ZxOCG9kEM7MTWgkwliqR" version="21.3.7" type="device">
  <diagram name="페이지-1" id="jmEi_aJcn82925WeZX_v">
    <mxGraphModel dx="127" dy="1843" grid="1" gridSize="10" guides="1" tooltips="1" connect="1" arrows="1" fold="1" page="1" pageScale="1" pageWidth="827" pageHeight="1169" math="0" shadow="0">
      <root>
        <mxCell id="0" />
        <mxCell id="1" parent="0" />
        <mxCell id="qkpx6r0DoK9DZIVo4au_-10" style="edgeStyle=orthogonalEdgeStyle;rounded=0;orthogonalLoop=1;jettySize=auto;html=1;exitX=1;exitY=0.5;exitDx=0;exitDy=0;entryX=0;entryY=0.5;entryDx=0;entryDy=0;startArrow=classic;startFill=1;" parent="1" source="qkpx6r0DoK9DZIVo4au_-3" target="qkpx6r0DoK9DZIVo4au_-4" edge="1">
          <mxGeometry relative="1" as="geometry" />
        </mxCell>
        <mxCell id="qkpx6r0DoK9DZIVo4au_-3" value="Client" style="shape=image;verticalLabelPosition=bottom;labelBackgroundColor=default;verticalAlign=top;aspect=fixed;imageAspect=0;image=https://upload.wikimedia.org/wikipedia/commons/thumb/a/a7/React-icon.svg/2300px-React-icon.svg.png;" parent="1" vertex="1">
          <mxGeometry x="1010" y="-895.6199999999999" width="60" height="52.15" as="geometry" />
        </mxCell>
        <mxCell id="qkpx6r0DoK9DZIVo4au_-11" value="upload,&lt;br&gt;download" style="edgeStyle=orthogonalEdgeStyle;rounded=0;orthogonalLoop=1;jettySize=auto;html=1;exitX=1;exitY=0.5;exitDx=0;exitDy=0;entryX=0;entryY=0.5;entryDx=0;entryDy=0;startArrow=classic;startFill=1;" parent="1" source="qkpx6r0DoK9DZIVo4au_-4" target="qkpx6r0DoK9DZIVo4au_-5" edge="1">
          <mxGeometry relative="1" as="geometry" />
        </mxCell>
        <mxCell id="qkpx6r0DoK9DZIVo4au_-12" value="file mapping data" style="edgeStyle=orthogonalEdgeStyle;rounded=0;orthogonalLoop=1;jettySize=auto;html=1;entryX=0.5;entryY=0;entryDx=0;entryDy=0;startArrow=classic;startFill=1;" parent="1" source="qkpx6r0DoK9DZIVo4au_-4" target="qkpx6r0DoK9DZIVo4au_-8" edge="1">
          <mxGeometry x="-0.0092" relative="1" as="geometry">
            <mxPoint as="offset" />
          </mxGeometry>
        </mxCell>
        <mxCell id="qkpx6r0DoK9DZIVo4au_-4" value="Server" style="shape=image;verticalLabelPosition=bottom;labelBackgroundColor=default;verticalAlign=top;aspect=fixed;imageAspect=0;image=https://upload.wikimedia.org/wikipedia/commons/thumb/d/d9/Node.js_logo.svg/2560px-Node.js_logo.svg.png;shadow=1;" parent="1" vertex="1">
          <mxGeometry x="1130" y="-897.81" width="90" height="55.05" as="geometry" />
        </mxCell>
        <mxCell id="qkpx6r0DoK9DZIVo4au_-5" value="File Server" style="shape=image;verticalLabelPosition=bottom;labelBackgroundColor=default;verticalAlign=top;aspect=fixed;imageAspect=0;image=https://upload.wikimedia.org/wikipedia/commons/thumb/d/d9/Node.js_logo.svg/2560px-Node.js_logo.svg.png;" parent="1" vertex="1">
          <mxGeometry x="1330" y="-897.81" width="90" height="55.05" as="geometry" />
        </mxCell>
        <mxCell id="qkpx6r0DoK9DZIVo4au_-8" value="PostgreSQL DB" style="shape=image;verticalLabelPosition=bottom;labelBackgroundColor=default;verticalAlign=top;aspect=fixed;imageAspect=0;image=https://upload.wikimedia.org/wikipedia/commons/thumb/2/29/Postgresql_elephant.svg/993px-Postgresql_elephant.svg.png;shadow=1;" parent="1" vertex="1">
          <mxGeometry x="1147" y="-760" width="56" height="57.75" as="geometry" />
        </mxCell>
      </root>
    </mxGraphModel>
  </diagram>
</mxfile>
